#!OML:ASF I:\Actors\actors\Patient Classification 1\Patient 1\Session 1\Subject1.ASF
:FULLY-SPECIFIED
:DEGREES
1130
root 0.16325 17.7265 8.37024 31.2816 2.16671 -8.96866
lowerback 23.1859 -0.012872 4.75586
upperback 1.94456 1.3765 1.62554
thorax -10.7629 0.457135 -1.35005
lowerneck 6.13623 -15.075 -15.326
upperneck -17.8483 -18.5145 36.9554
head -0.415367 -11.1964 14.4372
rclavicle 4.77083e-015 4.37326e-015
rhumerus 42.0052 43.6261 -51.1555
rradius 34.6712
rwrist 23.8856
rhand 3.88052 -22.2371
rfingers 7.12502
rthumb 29.3016 -49.9486
lclavicle 4.77083e-015 4.37326e-015
lhumerus 37.8897 -42.6216 59.1139
lradius 30.6561
lwrist -7.18529
lhand -23.1428 -25.5727
lfingers 7.12502
lthumb 3.3052 4.38143
rfemur -28.982 28.6843 11.9338
rtibia -1.73259
rfoot -13.3869 -35.1691
rtoes 18.1594
lfemur -21.6201 26.2501 -14.4517
ltibia -10.9807
lfoot 7.76011 -11.372
ltoes 42.5854
1131
root 0.162382 17.7264 8.36837 31.2815 2.18219 -8.99699
lowerback 23.1824 -0.0273139 4.75871
upperback 1.94165 1.35938 1.63368
thorax -10.7655 0.449212 -1.33718
lowerneck 6.1709 -15.0283 -15.3313
upperneck -17.8603 -18.4477 36.9545
head -0.442572 -11.1662 14.4568
rclavicle -4.37326e-015 -6.36111e-015
rhumerus 42.1188 43.7308 -51.0263
rradius 34.6665
rwrist 23.7817
rhand 3.99066 -22.3319
rfingers 7.12502
rthumb 29.4068 -50.025
lclavicle -4.37326e-015 -6.36111e-015
lhumerus 37.929 -42.7196 58.9627
lradius 30.6946
lwrist -7.03203
lhand -23.3234 -25.5756
lfingers 7.12502
lthumb 3.13083 4.3812
rfemur -29.0332 28.6938 11.9853
rtibia -1.62966
rfoot -13.4986 -35.1421
rtoes 18.2132
lfemur -21.602 26.0223 -14.3373
ltibia -10.9933
lfoot 7.63214 -11.1393
ltoes 42.6482
1132
root 0.162458 17.7267 8.36686 31.278 2.18892 -8.99615
lowerback 23.1827 -0.0401086 4.7637
upperback 1.94522 1.34397 1.63418
thorax -10.7623 0.441975 -1.3346
lowerneck 6.15456 -14.9904 -15.2874
upperneck -17.8742 -18.3864 36.8429
head -0.482651 -11.1286 14.4188
rclavicle 8.34896e-015 3.33958e-014
rhumerus 42.1707 43.7616 -50.9753
rradius 34.6529
rwrist 23.7839
rhand 4.16041 -22.3535
rfingers 7.12502
rthumb 29.5688 -50.018
lclavicle 8.34896e-015 3.33958e-014
lhumerus 37.9191 -42.7708 58.9249
lradius 30.7204
lwrist -6.94354
lhand -23.5349 -25.4107
lfingers 7.12502
lthumb 2.92649 4.54894
rfemur -29.0443 28.6867 11.9989
rtibia -1.59124
rfoot -13.5574 -35.1238
rtoes 18.3469
lfemur -21.5634 25.7867 -14.2455
ltibia -11.0243
lfoot 7.5009 -10.9556
ltoes 42.5842
1133
root 0.163062 17.727 8.36541 31.2805 2.17599 -8.97445
lowerback 23.1672 -0.0475805 4.74995
upperback 1.95243 1.32948 1.63447
thorax -10.7468 0.436384 -1.32169
lowerneck 5.98605 -14.9319 -15.2393
upperneck -17.757 -18.3146 36.6268
head -0.478694 -11.0567 14.3156
rclavicle -2.78299e-015 -7.95139e-015
rhumerus 42.0493 43.6899 -51.1524
rradius 34.6604
rwrist 23.9946
rhand 4.24344 -22.3422
rfingers 7.12502
rthumb 29.6481 -49.9926
lclavicle -2.78299e-015 -7.95139e-015
lhumerus 37.8112 -42.7034 59.0675
lradius 30.7162
lwrist -7.00659
lhand -23.5876 -25.3017
lfingers 7.12502
lthumb 2.87563 4.65868
rfemur -29.0682 28.6697 11.9603
rtibia -1.57497
rfoot -13.5646 -35.1064
rtoes 18.4435
lfemur -21.5296 25.5689 -14.1635
ltibia -11.0372
lfoot 7.36881 -10.7815
ltoes 42.4876
1134
root 0.163933 17.7274 8.36336 31.2681 2.11854 -8.96571
lowerback 23.1556 -0.0450788 4.70874
upperback 1.96213 1.32121 1.63648
thorax -10.7309 0.434993 -1.29321
lowerneck 5.68871 -14.772 -15.0651
upperneck -17.5243 -18.1014 36.1596
head -0.510555 -10.8839 14.1036
rclavicle 5.56597e-015 7.55382e-015
rhumerus 41.895 43.6208 -51.4633
rradius 34.6356
rwrist 24.2733
rhand 4.20661 -22.3109
rfingers 7.12502
rthumb 29.6129 -49.9675
lclavicle 5.56597e-015 7.55382e-015
lhumerus 37.69 -42.6331 59.1659
lradius 30.7322
lwrist -6.98544
lhand -23.5643 -25.4034
lfingers 7.12502
lthumb 2.89811 4.55664
rfemur -29.1108 28.695 11.9076
rtibia -1.54358
rfoot -13.4383 -35.1433
rtoes 18.0996
lfemur -21.4316 25.4073 -14.0485
ltibia -11.0901
lfoot 7.27854 -10.5674
ltoes 42.6577
1135
root 0.165193 17.7272 8.36096 31.2491 2.03961 -8.98951
lowerback 23.1407 -0.0563513 4.66395
upperback 1.95328 1.29646 1.65242
thorax -10.7357 0.425816 -1.24195
lowerneck 5.28157 -14.4183 -14.6151
upperneck -17.309 -17.5822 35.1773
head -0.711778 -10.527 13.7029
rclavicle -8.34896e-015 -2.74323e-014
rhumerus 41.9934 43.6551 -51.6506
rradius 34.5678
rwrist 23.9159
rhand 4.56757 -22.3252
rfingers 7.12502
rthumb 29.9574 -49.9201
lclavicle -8.34896e-015 -2.74323e-014
lhumerus 37.4386 -42.5556 59.2687
lradius 30.7937
lwrist -6.91995
lhand -23.591 -25.5719
lfingers 7.12502
lthumb 2.87234 4.38849
rfemur -29.1562 28.7608 11.8792
rtibia -1.5056
rfoot -13.2644 -35.2134
rtoes 17.4897
lfemur -21.3064 25.2773 -13.9118
ltibia -11.1649
lfoot 7.19129 -10.3255
ltoes 42.9926
